<?xml version="1.0" encoding="iso-8859-1"?>
<!-- Generator: Adobe Illustrator 19.0.0, SVG Export Plug-In . SVG Version: 6.00 Build 0)  -->
<svg version="1.1" id="Layer_1" xmlns="http://www.w3.org/2000/svg" xmlns:xlink="http://www.w3.org/1999/xlink" x="0px" y="0px"
	 viewBox="0 0 512 512" style="enable-background:new 0 0 512 512;" xml:space="preserve">
<g>
	<g>
		<circle cx="190.094" cy="443.37" r="8.17"/>
	</g>
</g>
<g>
	<g>
		<circle cx="222.774" cy="410.689" r="8.17"/>
	</g>
</g>
<g>
	<g>
		<path d="M462.979,10.894h-49.021c-4.512,0-8.17,3.657-8.17,8.17s3.658,8.17,8.17,8.17h49.021c4.506,0,8.17,3.665,8.17,8.17
			v441.191c0,4.506-3.665,8.17-8.17,8.17h-74.937c0.907-2.557,1.405-5.306,1.405-8.17V35.404c0-13.515-10.995-24.511-24.511-24.511
			h-40.851V8.17c0-4.513-3.658-8.17-8.17-8.17H272.34c-4.512,0-8.17,3.657-8.17,8.17v2.723H49.021
			c-13.516,0-24.511,10.996-24.511,24.511v441.191c0,13.515,10.995,24.511,24.511,24.511H264.17v2.723c0,4.513,3.658,8.17,8.17,8.17
			h43.574c4.512,0,8.17-3.657,8.17-8.17v-2.723h138.894c13.516,0,24.511-10.996,24.511-24.511V35.404
			C487.489,21.89,476.494,10.894,462.979,10.894z M264.17,484.766H49.021c-4.506,0-8.17-3.665-8.17-8.17V35.404
			c0-4.506,3.665-8.17,8.17-8.17H264.17V484.766z M307.745,495.66h-27.234V16.34h27.234V495.66z M373.106,476.596
			c0,4.506-3.665,8.17-8.17,8.17h-40.851V27.234h40.851c4.506,0,8.17,3.665,8.17,8.17V476.596z"/>
	</g>
</g>
<g>
	<g>
		<path d="M413.957,43.574c-4.512,0-8.17,3.657-8.17,8.17v408.511c0,4.513,3.658,8.17,8.17,8.17s8.17-3.657,8.17-8.17V51.745
			C422.128,47.231,418.47,43.574,413.957,43.574z"/>
	</g>
</g>
<g>
	<g>
		<path d="M446.638,43.574c-4.512,0-8.17,3.657-8.17,8.17v408.511c0,4.513,3.658,8.17,8.17,8.17s8.17-3.657,8.17-8.17V51.745
			C454.809,47.231,451.15,43.574,446.638,43.574z"/>
	</g>
</g>
<g>
</g>
<g>
</g>
<g>
</g>
<g>
</g>
<g>
</g>
<g>
</g>
<g>
</g>
<g>
</g>
<g>
</g>
<g>
</g>
<g>
</g>
<g>
</g>
<g>
</g>
<g>
</g>
<g>
</g>
</svg>
